{
  "accessors": [
    {
      "bufferView": 0,
      "componentType": 5125,
      "count": 38556,
      "type": "SCALAR"
    },
    {
      "bufferView": 1,
      "componentType": 5126,
      "count": 6733,
      "max": [
        0.022288558324896457,
        1.1323737780788434e-09,
        0.022295488171081974
      ],
      "min": [
        -0.02228855833921889,
        -0.07494507869001246,
        -0.022295488171081974
      ],
      "type": "VEC3"
    },
    {
      "bufferView": 2,
      "componentType": 5126,
      "count": 6733,
      "max": [
        0.9999999999999615,
        0.9999999999995327,
        0.9996891820012421
      ],
      "min": [
        -0.9999999999999615,
        -0.9999302075932271,
        -0.9996891820008301
      ],
      "type": "VEC3"
    },
    {
      "bufferView": 3,
      "componentType": 5126,
      "count": 6733,
      "max": [
        0.9999756178634287,
        1.0
      ],
      "min": [
        0.0,
        0.0
      ],
      "type": "VEC2"
    },
    {
      "bufferView": 4,
      "componentType": 5125,
      "count": 38556,
      "type": "SCALAR"
    },
    {
      "bufferView": 5,
      "componentType": 5126,
      "count": 6797,
      "max": [
        0.022288569846740935,
        0.07494507869001246,
        0.022295499689345185
      ],
      "min": [
        -0.022288569846740935,
        -3.4567229634241414e-08,
        -0.022295499689345185
      ],
      "type": "VEC3"
    },
    {
      "bufferView": 6,
      "componentType": 5126,
      "count": 6797,
      "max": [
        0.9999999999999332,
        0.99993017868479,
        0.9996891820012346
      ],
      "min": [
        -0.999999999999933,
        -0.9999999999991716,
        -0.9996891820008234
      ],
      "type": "VEC3"
    },
    {
      "bufferView": 7,
      "componentType": 5126,
      "count": 6797,
      "max": [
        0.7187928637894236,
        1.0
      ],
      "min": [
        0.0,
        0.0
      ],
      "type": "VEC2"
    }
  ],
  "asset": {
    "generator": "Adobe Illustrator",
    "version": "2.0"
  },
  "bufferViews": [
    {
      "buffer": 0,
      "byteLength": 154224,
      "target": 34963
    },
    {
      "buffer": 0,
      "byteLength": 80796,
      "byteOffset": 154224,
      "target": 34962
    },
    {
      "buffer": 0,
      "byteLength": 80796,
      "byteOffset": 235020,
      "target": 34962
    },
    {
      "buffer": 0,
      "byteLength": 53864,
      "byteOffset": 315816,
      "target": 34962
    },
    {
      "buffer": 0,
      "byteLength": 154224,
      "byteOffset": 369680,
      "target": 34963
    },
    {
      "buffer": 0,
      "byteLength": 81564,
      "byteOffset": 523904,
      "target": 34962
    },
    {
      "buffer": 0,
      "byteLength": 81564,
      "byteOffset": 605468,
      "target": 34962
    },
    {
      "buffer": 0,
      "byteLength": 54376,
      "byteOffset": 687032,
      "target": 34962
    }
  ],
  "buffers": [
    {
      "byteLength": 741408,
      "uri": "data:application/octet-stream;base64,"
    }
  ],
  "materials": [
    {
      "doubleSided": true,
      "pbrMetallicRoughness": {
        "baseColorFactor": [
          0.921875,
          0.1171875074505806,
          0.140625,
          1.0
        ],
        "metallicFactor": 0.0,
        "roughnessFactor": 0.6131147742271423
      }
    },
    {
      "doubleSided": true,
      "pbrMetallicRoughness": {
        "baseColorFactor": [
          0.9999999403953552,
          0.94140625,
          0.0,
          1.0
        ],
        "metallicFactor": 0.0,
        "roughnessFactor": 0.6131147742271423
      }
    }
  ],
  "meshes": [
    {
      "primitives": [
        {
          "attributes": {
            "NORMAL": 2,
            "POSITION": 1,
            "TEXCOORD_0": 3
          },
          "indices": 0,
          "material": 0,
          "mode": 4
        }
      ]
    },
    {
      "primitives": [
        {
          "attributes": {
            "NORMAL": 6,
            "POSITION": 5,
            "TEXCOORD_0": 7
          },
          "indices": 4,
          "material": 1,
          "mode": 4
        }
      ]
    }
  ],
  "nodes": [
    {
      "mesh": 0
    },
    {
      "mesh": 1
    }
  ],
  "scenes": [
    {
      "nodes": [
        0,
        1
      ]
    }
  ]
}
