{
  "accessors": [
    {
      "bufferView": 0,
      "componentType": 5125,
      "count": 32304,
      "type": "SCALAR"
    },
    {
      "bufferView": 1,
      "componentType": 5126,
      "count": 5906,
      "max": [
        0.15918508840391687,
        0.1591850884039167,
        0.06738107776999225
      ],
      "min": [
        -0.15918508840391676,
        -0.15918508840391676,
        -0.06738107776999225
      ],
      "type": "VEC3"
    },
    {
      "bufferView": 2,
      "componentType": 5126,
      "count": 5906,
      "max": [
        0.9999999999999992,
        0.9999999999999992,
        1.0
      ],
      "min": [
        -0.9999999999999994,
        -0.9999999999999994,
        -1.0
      ],
      "type": "VEC3"
    },
    {
      "bufferView": 3,
      "componentType": 5126,
      "count": 5906,
      "max": [
        0.8998559116462295,
        1.0
      ],
      "min": [
        0.0,
        0.0
      ],
      "type": "VEC2"
    }
  ],
  "asset": {
    "generator": "Adobe Illustrator",
    "version": "2.0"
  },
  "bufferViews": [
    {
      "buffer": 0,
      "byteLength": 129216,
      "target": 34963
    },
    {
      "buffer": 0,
      "byteLength": 70872,
      "byteOffset": 129216,
      "target": 34962
    },
    {
      "buffer": 0,
      "byteLength": 70872,
      "byteOffset": 200088,
      "target": 34962
    },
    {
      "buffer": 0,
      "byteLength": 47248,
      "byteOffset": 270960,
      "target": 34962
    }
  ],
  "buffers": [
    {
      "byteLength": 318208,
      "uri": "data:application/octet-stream;base64,"
    }
  ],
  "materials": [
    {
      "doubleSided": true,
      "pbrMetallicRoughness": {
        "baseColorFactor": [
          0.52734375,
          0.7734375,
          0.3906249701976776,
          1.0
        ],
        "metallicFactor": 0.08196721225976944,
        "roughnessFactor": 0.40000003576278687
      }
    }
  ],
  "meshes": [
    {
      "primitives": [
        {
          "attributes": {
            "NORMAL": 2,
            "POSITION": 1,
            "TEXCOORD_0": 3
          },
          "indices": 0,
          "material": 0,
          "mode": 4
        }
      ]
    }
  ],
  "nodes": [
    {
      "mesh": 0
    }
  ],
  "scenes": [
    {
      "nodes": [
        0
      ]
    }
  ]
}
