{
  "accessors": [
    {
      "bufferView": 0,
      "componentType": 5125,
      "count": 5286,
      "type": "SCALAR"
    },
    {
      "bufferView": 1,
      "componentType": 5126,
      "count": 1413,
      "max": [
        0.1583579501017287,
        -0.0018949415225584243,
        0.03925888951824087
      ],
      "min": [
        -0.1583579038353886,
        -0.1583699381928435,
        -0.03925888951824087
      ],
      "type": "VEC3"
    },
    {
      "bufferView": 2,
      "componentType": 5126,
      "count": 1413,
      "max": [
        0.9997051244415367,
        0.9999999999999817,
        1.0
      ],
      "min": [
        -0.999705115149994,
        -0.9999999999999817,
        -1.0
      ],
      "type": "VEC3"
    },
    {
      "bufferView": 3,
      "componentType": 5126,
      "count": 1413,
      "max": [
        0.6861702657935165,
        1.0
      ],
      "min": [
        0.0,
        0.0
      ],
      "type": "VEC2"
    },
    {
      "bufferView": 4,
      "componentType": 5125,
      "count": 5370,
      "type": "SCALAR"
    },
    {
      "bufferView": 5,
      "componentType": 5126,
      "count": 1437,
      "max": [
        0.15836677867303983,
        0.15836993819284356,
        0.03966073704790456
      ],
      "min": [
        -0.15836677867303983,
        -0.0017817772220123373,
        -0.039660737047904564
      ],
      "type": "VEC3"
    },
    {
      "bufferView": 6,
      "componentType": 5126,
      "count": 1437,
      "max": [
        0.9999999466061076,
        0.9999999999999746,
        1.0
      ],
      "min": [
        -0.9999999448747932,
        -0.9999999999999746,
        -1.0
      ],
      "type": "VEC3"
    },
    {
      "bufferView": 7,
      "componentType": 5126,
      "count": 1437,
      "max": [
        0.6855255196928539,
        1.0
      ],
      "min": [
        0.0,
        0.0
      ],
      "type": "VEC2"
    }
  ],
  "asset": {
    "generator": "Adobe Illustrator",
    "version": "2.0"
  },
  "bufferViews": [
    {
      "buffer": 0,
      "byteLength": 21144,
      "target": 34963
    },
    {
      "buffer": 0,
      "byteLength": 16956,
      "byteOffset": 21144,
      "target": 34962
    },
    {
      "buffer": 0,
      "byteLength": 16956,
      "byteOffset": 38100,
      "target": 34962
    },
    {
      "buffer": 0,
      "byteLength": 11304,
      "byteOffset": 55056,
      "target": 34962
    },
    {
      "buffer": 0,
      "byteLength": 21480,
      "byteOffset": 66360,
      "target": 34963
    },
    {
      "buffer": 0,
      "byteLength": 17244,
      "byteOffset": 87840,
      "target": 34962
    },
    {
      "buffer": 0,
      "byteLength": 17244,
      "byteOffset": 105084,
      "target": 34962
    },
    {
      "buffer": 0,
      "byteLength": 11496,
      "byteOffset": 122328,
      "target": 34962
    }
  ],
  "buffers": [
    {
      "byteLength": 133824,
      "uri": "data:application/octet-stream;base64,"
    }
  ],
  "materials": [
    {
      "doubleSided": true,
      "pbrMetallicRoughness": {
        "baseColorFactor": [
          0.0,
          0.6796875,
          0.93359375,
          1.0
        ],
        "metallicFactor": 0.0,
        "roughnessFactor": 0.4000000059604645
      }
    },
    {
      "doubleSided": true,
      "pbrMetallicRoughness": {
        "baseColorFactor": [
          0.0,
          0.6796875,
          0.93359375,
          1.0
        ],
        "metallicFactor": 0.0,
        "roughnessFactor": 0.4000000059604645
      }
    }
  ],
  "meshes": [
    {
      "primitives": [
        {
          "attributes": {
            "NORMAL": 2,
            "POSITION": 1,
            "TEXCOORD_0": 3
          },
          "indices": 0,
          "material": 0,
          "mode": 4
        }
      ]
    },
    {
      "primitives": [
        {
          "attributes": {
            "NORMAL": 6,
            "POSITION": 5,
            "TEXCOORD_0": 7
          },
          "indices": 4,
          "material": 1,
          "mode": 4
        }
      ]
    }
  ],
  "nodes": [
    {
      "mesh": 0
    },
    {
      "mesh": 1
    }
  ],
  "scenes": [
    {
      "nodes": [
        0,
        1
      ]
    }
  ]
}
