{
  "accessors": [
    {
      "bufferView": 0,
      "componentType": 5125,
      "count": 32112,
      "type": "SCALAR"
    },
    {
      "bufferView": 1,
      "componentType": 5126,
      "count": 5874,
      "max": [
        0.06367404796015325,
        0.06367404796015325,
        0.026958502541866266
      ],
      "min": [
        -0.06367404796015327,
        -0.06367404796015327,
        -0.02695850254186627
      ],
      "type": "VEC3"
    },
    {
      "bufferView": 2,
      "componentType": 5126,
      "count": 5874,
      "max": [
        1.0,
        1.0,
        1.0
      ],
      "min": [
        -1.0,
        -1.0,
        -1.0
      ],
      "type": "VEC3"
    },
    {
      "bufferView": 3,
      "componentType": 5126,
      "count": 5874,
      "max": [
        0.8998559315601149,
        1.0
      ],
      "min": [
        0.0,
        0.0
      ],
      "type": "VEC2"
    }
  ],
  "asset": {
    "generator": "Adobe Illustrator",
    "version": "2.0"
  },
  "bufferViews": [
    {
      "buffer": 0,
      "byteLength": 128448,
      "target": 34963
    },
    {
      "buffer": 0,
      "byteLength": 70488,
      "byteOffset": 128448,
      "target": 34962
    },
    {
      "buffer": 0,
      "byteLength": 70488,
      "byteOffset": 198936,
      "target": 34962
    },
    {
      "buffer": 0,
      "byteLength": 46992,
      "byteOffset": 269424,
      "target": 34962
    }
  ],
  "buffers": [
    {
      "byteLength": 316416,
      "uri": "data:application/octet-stream;base64,"
    }
  ],
  "materials": [
    {
      "doubleSided": true,
      "pbrMetallicRoughness": {
        "baseColorFactor": [
          0.9999999403953552,
          0.9999999403953552,
          0.9999999403953552,
          1.0
        ],
        "metallicFactor": 0.08196721225976944,
        "roughnessFactor": 0.40000003576278687
      }
    }
  ],
  "meshes": [
    {
      "primitives": [
        {
          "attributes": {
            "NORMAL": 2,
            "POSITION": 1,
            "TEXCOORD_0": 3
          },
          "indices": 0,
          "material": 0,
          "mode": 4
        }
      ]
    }
  ],
  "nodes": [
    {
      "mesh": 0
    }
  ],
  "scenes": [
    {
      "nodes": [
        0
      ]
    }
  ]
}
